<svg width="29" height="28" viewBox="0 0 29 28" fill="none" xmlns="http://www.w3.org/2000/svg">
<g clip-path="url(#clip0_107_881)">
<path fill-rule="evenodd" clip-rule="evenodd" d="M14.4583 0C6.73971 0 0.5 6.41667 0.5 14.355C0.5 20.7005 4.498 26.0718 10.0443 27.9729C10.7377 28.1158 10.9917 27.664 10.9917 27.284C10.9917 26.9512 10.9689 25.8105 10.9689 24.6219C7.086 25.4777 6.27743 22.9107 6.27743 22.9107C5.65343 21.247 4.72886 20.8195 4.72886 20.8195C3.458 19.9401 4.82143 19.9401 4.82143 19.9401C6.23114 20.0352 6.97086 21.4136 6.97086 21.4136C8.21857 23.5999 10.2291 22.9822 11.038 22.6018C11.1534 21.6749 11.5234 21.0333 11.9163 20.6768C8.81943 20.344 5.56114 19.1083 5.56114 13.5943C5.56114 12.0257 6.11543 10.7424 6.99371 9.74429C6.85514 9.38788 6.36971 7.91408 7.13257 5.94154C7.13257 5.94154 8.31114 5.56121 10.9686 7.41504C12.1063 7.10082 13.2796 6.94097 14.4583 6.93963C15.6369 6.93963 16.8383 7.10617 17.9477 7.41504C20.6054 5.56121 21.784 5.94154 21.784 5.94154C22.5469 7.91408 22.0611 9.38788 21.9226 9.74429C22.824 10.7424 23.3554 12.0257 23.3554 13.5943C23.3554 19.1083 20.0971 20.3201 16.9771 20.6768C17.4857 21.1283 17.9246 21.9838 17.9246 23.3386C17.9246 25.2636 17.9017 26.8085 17.9017 27.2837C17.9017 27.664 18.156 28.1158 18.8491 27.9732C24.3954 26.0715 28.3934 20.7005 28.3934 14.355C28.4163 6.41667 22.1537 0 14.4583 0Z" fill="#ECECEC"/>
</g>
<defs>
<clipPath id="clip0_107_881">
<rect width="28" height="28" fill="white" transform="translate(0.5)"/>
</clipPath>
</defs>
</svg>
