<svg width="265" height="92" viewBox="0 0 265 92" fill="none" xmlns="http://www.w3.org/2000/svg">
<g filter="url(#filter0_d_107_880)">
<rect x="10.5" y="10" width="240" height="68" rx="12" fill="#24292F" shape-rendering="crispEdges"/>
<g clip-path="url(#clip0_107_880)">
<path fill-rule="evenodd" clip-rule="evenodd" d="M79.4583 30C71.7397 30 65.5 36.4167 65.5 44.355C65.5 50.7005 69.498 56.0718 75.0443 57.9729C75.7377 58.1158 75.9917 57.664 75.9917 57.284C75.9917 56.9512 75.9689 55.8105 75.9689 54.6219C72.086 55.4777 71.2774 52.9107 71.2774 52.9107C70.6534 51.247 69.7289 50.8195 69.7289 50.8195C68.458 49.9401 69.8214 49.9401 69.8214 49.9401C71.2311 50.0352 71.9709 51.4136 71.9709 51.4136C73.2186 53.5999 75.2291 52.9822 76.038 52.6018C76.1534 51.6749 76.5234 51.0333 76.9163 50.6768C73.8194 50.344 70.5611 49.1083 70.5611 43.5943C70.5611 42.0257 71.1154 40.7424 71.9937 39.7443C71.8551 39.3879 71.3697 37.9141 72.1326 35.9415C72.1326 35.9415 73.3111 35.5612 75.9686 37.415C77.1063 37.1008 78.2796 36.941 79.4583 36.9396C80.6369 36.9396 81.8383 37.1062 82.9477 37.415C85.6054 35.5612 86.784 35.9415 86.784 35.9415C87.5469 37.9141 87.0611 39.3879 86.9226 39.7443C87.824 40.7424 88.3554 42.0257 88.3554 43.5943C88.3554 49.1083 85.0971 50.3201 81.9771 50.6768C82.4857 51.1283 82.9246 51.9838 82.9246 53.3386C82.9246 55.2636 82.9017 56.8085 82.9017 57.2837C82.9017 57.664 83.156 58.1158 83.8491 57.9732C89.3954 56.0715 93.3934 50.7005 93.3934 44.355C93.4163 36.4167 87.1537 30 79.4583 30Z" fill="#ECECEC"/>
</g>
<path d="M130.884 41C130.728 40.5218 130.522 40.0933 130.266 39.7145C130.015 39.331 129.715 39.0043 129.364 38.7344C129.019 38.4645 128.626 38.2585 128.185 38.1165C127.745 37.9744 127.262 37.9034 126.737 37.9034C125.875 37.9034 125.091 38.1259 124.386 38.571C123.68 39.0161 123.119 39.6719 122.702 40.5384C122.286 41.4048 122.077 42.4678 122.077 43.7273C122.077 44.9867 122.288 46.0497 122.71 46.9162C123.131 47.7827 123.701 48.4384 124.421 48.8835C125.141 49.3286 125.951 49.5511 126.85 49.5511C127.683 49.5511 128.417 49.3736 129.052 49.0185C129.691 48.6586 130.188 48.152 130.543 47.4986C130.903 46.8404 131.083 46.0663 131.083 45.1761L131.623 45.2898H127.248V43.7273H132.788V45.2898C132.788 46.4877 132.532 47.5294 132.021 48.4148C131.514 49.3002 130.813 49.9867 129.918 50.4744C129.028 50.9574 128.005 51.1989 126.85 51.1989C125.562 51.1989 124.431 50.8958 123.455 50.2898C122.485 49.6837 121.727 48.822 121.183 47.7045C120.643 46.5871 120.373 45.2614 120.373 43.7273C120.373 42.5767 120.527 41.5421 120.835 40.6236C121.147 39.7003 121.587 38.9143 122.156 38.2656C122.724 37.617 123.396 37.1198 124.173 36.7741C124.949 36.4285 125.804 36.2557 126.737 36.2557C127.504 36.2557 128.219 36.3717 128.881 36.6037C129.549 36.831 130.143 37.1553 130.664 37.5767C131.19 37.9934 131.628 38.4929 131.978 39.0753C132.328 39.6529 132.57 40.2945 132.702 41H130.884ZM136.261 51V40.0909H137.937V51H136.261ZM137.113 38.2727C136.786 38.2727 136.504 38.1615 136.268 37.9389C136.036 37.7164 135.92 37.4489 135.92 37.1364C135.92 36.8239 136.036 36.5563 136.268 36.3338C136.504 36.1113 136.786 36 137.113 36C137.44 36 137.719 36.1113 137.951 36.3338C138.188 36.5563 138.306 36.8239 138.306 37.1364C138.306 37.4489 138.188 37.7164 137.951 37.9389C137.719 38.1615 137.44 38.2727 137.113 38.2727ZM145.751 40.0909V41.5114H140.098V40.0909H145.751ZM141.745 37.4773H143.422V47.875C143.422 48.3485 143.49 48.7036 143.627 48.9403C143.77 49.1723 143.949 49.3286 144.167 49.4091C144.39 49.4848 144.624 49.5227 144.87 49.5227C145.055 49.5227 145.207 49.5133 145.325 49.4943C145.443 49.4706 145.538 49.4517 145.609 49.4375L145.95 50.9432C145.836 50.9858 145.678 51.0284 145.474 51.071C145.27 51.1184 145.012 51.142 144.7 51.142C144.226 51.142 143.762 51.0402 143.308 50.8366C142.858 50.633 142.484 50.3229 142.186 49.9062C141.892 49.4896 141.745 48.964 141.745 48.3295V37.4773ZM148.734 51V36.4545H150.495V42.9318H158.251V36.4545H160.012V51H158.251V44.4943H150.495V51H148.734ZM170.186 46.5398V40.0909H171.863V51H170.186V49.1534H170.073C169.817 49.7074 169.419 50.1785 168.88 50.5668C168.34 50.9503 167.658 51.142 166.834 51.142C166.152 51.142 165.546 50.9929 165.016 50.6946C164.486 50.3916 164.069 49.937 163.766 49.331C163.463 48.7202 163.311 47.9508 163.311 47.0227V40.0909H164.988V46.9091C164.988 47.7045 165.21 48.339 165.655 48.8125C166.105 49.286 166.678 49.5227 167.374 49.5227C167.791 49.5227 168.214 49.4162 168.645 49.2031C169.081 48.9901 169.445 48.6634 169.739 48.223C170.037 47.7827 170.186 47.2216 170.186 46.5398ZM175.16 51V36.4545H176.836V41.8239H176.978C177.101 41.6345 177.272 41.393 177.489 41.0994C177.712 40.8011 178.029 40.536 178.441 40.304C178.858 40.0672 179.421 39.9489 180.131 39.9489C181.05 39.9489 181.86 40.1785 182.56 40.6378C183.261 41.0971 183.808 41.7481 184.201 42.5909C184.594 43.4337 184.79 44.428 184.79 45.5739C184.79 46.7292 184.594 47.7306 184.201 48.5781C183.808 49.4209 183.263 50.0743 182.567 50.5384C181.871 50.9976 181.069 51.2273 180.16 51.2273C179.459 51.2273 178.898 51.1113 178.477 50.8793C178.055 50.6425 177.731 50.375 177.504 50.0767C177.276 49.7737 177.101 49.5227 176.978 49.3239H176.779V51H175.16ZM176.808 45.5455C176.808 46.3693 176.928 47.0961 177.17 47.7259C177.411 48.3509 177.764 48.8409 178.228 49.196C178.692 49.5464 179.26 49.7216 179.933 49.7216C180.633 49.7216 181.218 49.5369 181.687 49.1676C182.16 48.7936 182.515 48.2917 182.752 47.6619C182.994 47.0275 183.114 46.322 183.114 45.5455C183.114 44.7784 182.996 44.0871 182.759 43.4716C182.527 42.8513 182.174 42.3613 181.701 42.0014C181.232 41.6368 180.643 41.4545 179.933 41.4545C179.251 41.4545 178.678 41.6274 178.214 41.973C177.75 42.3139 177.399 42.7921 177.163 43.4077C176.926 44.0185 176.808 44.7311 176.808 45.5455Z" fill="#ECECEC"/>
</g>
<defs>
<filter id="filter0_d_107_880" x="0.5" y="0" width="264" height="92" filterUnits="userSpaceOnUse" color-interpolation-filters="sRGB">
<feFlood flood-opacity="0" result="BackgroundImageFix"/>
<feColorMatrix in="SourceAlpha" type="matrix" values="0 0 0 0 0 0 0 0 0 0 0 0 0 0 0 0 0 0 127 0" result="hardAlpha"/>
<feOffset dx="2" dy="2"/>
<feGaussianBlur stdDeviation="6"/>
<feComposite in2="hardAlpha" operator="out"/>
<feColorMatrix type="matrix" values="0 0 0 0 0 0 0 0 0 0 0 0 0 0 0 0 0 0 0.2 0"/>
<feBlend mode="normal" in2="BackgroundImageFix" result="effect1_dropShadow_107_880"/>
<feBlend mode="normal" in="SourceGraphic" in2="effect1_dropShadow_107_880" result="shape"/>
</filter>
<clipPath id="clip0_107_880">
<rect width="28" height="28" fill="white" transform="translate(65.5 30)"/>
</clipPath>
</defs>
</svg>
