<svg width="265" height="92" viewBox="0 0 265 92" fill="none" xmlns="http://www.w3.org/2000/svg">
<g filter="url(#filter0_d_107_884)">
<rect x="10.5" y="10" width="240" height="68" rx="12" fill="white" shape-rendering="crispEdges"/>
<path fill-rule="evenodd" clip-rule="evenodd" d="M90.3 44.2555C90.3 43.4578 90.2284 42.6907 90.0955 41.9543H79.5V46.3061H85.5545C85.2938 47.7123 84.5011 48.9038 83.3097 49.7015V52.5242H86.9455C89.0727 50.5657 90.3 47.6816 90.3 44.2555Z" fill="#4285F4"/>
<path fill-rule="evenodd" clip-rule="evenodd" d="M79.5 55.25C82.5375 55.25 85.0841 54.2426 86.9455 52.5244L83.3097 49.7017C82.3023 50.3767 81.0136 50.7755 79.5 50.7755C76.5699 50.7755 74.0898 48.7965 73.2051 46.1375H69.4466V49.0522C71.2977 52.7289 75.1023 55.25 79.5 55.25Z" fill="#34A853"/>
<path fill-rule="evenodd" clip-rule="evenodd" d="M73.2051 46.1375C72.9801 45.4625 72.8523 44.7415 72.8523 44C72.8523 43.2585 72.9801 42.5375 73.2051 41.8625V38.9478H69.4466C68.6847 40.4665 68.25 42.1847 68.25 44C68.25 45.8154 68.6847 47.5336 69.4466 49.0523L73.2051 46.1375Z" fill="#FBBC05"/>
<path fill-rule="evenodd" clip-rule="evenodd" d="M79.5 37.2244C81.1517 37.2244 82.6347 37.792 83.8006 38.9068L87.0273 35.6801C85.079 33.8648 82.5324 32.75 79.5 32.75C75.1023 32.75 71.2977 35.271 69.4466 38.9477L73.2051 41.8625C74.0898 39.2034 76.5699 37.2244 79.5 37.2244Z" fill="#EA4335"/>
<path d="M130.552 41C130.396 40.5218 130.19 40.0933 129.934 39.7145C129.683 39.331 129.383 39.0043 129.032 38.7344C128.687 38.4645 128.294 38.2585 127.853 38.1165C127.413 37.9744 126.93 37.9034 126.404 37.9034C125.543 37.9034 124.759 38.1259 124.054 38.571C123.348 39.0161 122.787 39.6719 122.37 40.5384C121.954 41.4048 121.745 42.4678 121.745 43.7273C121.745 44.9867 121.956 46.0497 122.377 46.9162C122.799 47.7827 123.369 48.4384 124.089 48.8835C124.809 49.3286 125.618 49.5511 126.518 49.5511C127.351 49.5511 128.085 49.3736 128.72 49.0185C129.359 48.6586 129.856 48.152 130.211 47.4986C130.571 46.8404 130.751 46.0663 130.751 45.1761L131.291 45.2898H126.916V43.7273H132.456V45.2898C132.456 46.4877 132.2 47.5294 131.689 48.4148C131.182 49.3002 130.481 49.9867 129.586 50.4744C128.696 50.9574 127.673 51.1989 126.518 51.1989C125.23 51.1989 124.099 50.8958 123.123 50.2898C122.153 49.6837 121.395 48.822 120.85 47.7045C120.311 46.5871 120.041 45.2614 120.041 43.7273C120.041 42.5767 120.195 41.5421 120.502 40.6236C120.815 39.7003 121.255 38.9143 121.824 38.2656C122.392 37.617 123.064 37.1198 123.841 36.7741C124.617 36.4285 125.472 36.2557 126.404 36.2557C127.172 36.2557 127.886 36.3717 128.549 36.6037C129.217 36.831 129.811 37.1553 130.332 37.5767C130.858 37.9934 131.296 38.4929 131.646 39.0753C131.996 39.6529 132.238 40.2945 132.37 41H130.552ZM139.677 51.2273C138.692 51.2273 137.828 50.9929 137.085 50.5241C136.346 50.0554 135.768 49.3996 135.352 48.5568C134.94 47.714 134.734 46.7292 134.734 45.6023C134.734 44.4659 134.94 43.474 135.352 42.6264C135.768 41.7789 136.346 41.1207 137.085 40.652C137.828 40.1832 138.692 39.9489 139.677 39.9489C140.662 39.9489 141.523 40.1832 142.262 40.652C143.005 41.1207 143.583 41.7789 143.995 42.6264C144.412 43.474 144.62 44.4659 144.62 45.6023C144.62 46.7292 144.412 47.714 143.995 48.5568C143.583 49.3996 143.005 50.0554 142.262 50.5241C141.523 50.9929 140.662 51.2273 139.677 51.2273ZM139.677 49.7216C140.425 49.7216 141.04 49.5298 141.523 49.1463C142.006 48.7628 142.364 48.2585 142.596 47.6335C142.828 47.0085 142.944 46.3314 142.944 45.6023C142.944 44.8731 142.828 44.1937 142.596 43.5639C142.364 42.9342 142.006 42.4252 141.523 42.0369C141.04 41.6487 140.425 41.4545 139.677 41.4545C138.929 41.4545 138.313 41.6487 137.83 42.0369C137.347 42.4252 136.99 42.9342 136.758 43.5639C136.526 44.1937 136.41 44.8731 136.41 45.6023C136.41 46.3314 136.526 47.0085 136.758 47.6335C136.99 48.2585 137.347 48.7628 137.83 49.1463C138.313 49.5298 138.929 49.7216 139.677 49.7216ZM151.61 51.2273C150.626 51.2273 149.761 50.9929 149.018 50.5241C148.279 50.0554 147.702 49.3996 147.285 48.5568C146.873 47.714 146.667 46.7292 146.667 45.6023C146.667 44.4659 146.873 43.474 147.285 42.6264C147.702 41.7789 148.279 41.1207 149.018 40.652C149.761 40.1832 150.626 39.9489 151.61 39.9489C152.595 39.9489 153.457 40.1832 154.196 40.652C154.939 41.1207 155.517 41.7789 155.929 42.6264C156.345 43.474 156.554 44.4659 156.554 45.6023C156.554 46.7292 156.345 47.714 155.929 48.5568C155.517 49.3996 154.939 50.0554 154.196 50.5241C153.457 50.9929 152.595 51.2273 151.61 51.2273ZM151.61 49.7216C152.359 49.7216 152.974 49.5298 153.457 49.1463C153.94 48.7628 154.297 48.2585 154.529 47.6335C154.761 47.0085 154.877 46.3314 154.877 45.6023C154.877 44.8731 154.761 44.1937 154.529 43.5639C154.297 42.9342 153.94 42.4252 153.457 42.0369C152.974 41.6487 152.359 41.4545 151.61 41.4545C150.862 41.4545 150.247 41.6487 149.764 42.0369C149.281 42.4252 148.923 42.9342 148.691 43.5639C148.459 44.1937 148.343 44.8731 148.343 45.6023C148.343 46.3314 148.459 47.0085 148.691 47.6335C148.923 48.2585 149.281 48.7628 149.764 49.1463C150.247 49.5298 150.862 49.7216 151.61 49.7216ZM163.516 55.3182C162.706 55.3182 162.01 55.214 161.428 55.0057C160.845 54.8021 160.36 54.5322 159.972 54.196C159.588 53.8646 159.283 53.5095 159.055 53.1307L160.391 52.1932C160.542 52.392 160.734 52.6193 160.966 52.875C161.198 53.1354 161.515 53.3603 161.918 53.5497C162.325 53.7438 162.857 53.8409 163.516 53.8409C164.396 53.8409 165.123 53.6278 165.696 53.2017C166.269 52.7756 166.555 52.108 166.555 51.1989V48.983H166.413C166.29 49.1818 166.115 49.428 165.888 49.7216C165.665 50.0104 165.343 50.2685 164.922 50.4957C164.505 50.7183 163.942 50.8295 163.232 50.8295C162.351 50.8295 161.56 50.6212 160.859 50.2045C160.163 49.7879 159.612 49.1818 159.205 48.3864C158.802 47.5909 158.601 46.625 158.601 45.4886C158.601 44.3712 158.797 43.3982 159.19 42.5696C159.583 41.7363 160.13 41.0923 160.831 40.6378C161.532 40.1785 162.341 39.9489 163.26 39.9489C163.97 39.9489 164.534 40.0672 164.95 40.304C165.372 40.536 165.694 40.8011 165.916 41.0994C166.143 41.393 166.319 41.6345 166.442 41.8239H166.612V40.0909H168.232V51.3125C168.232 52.25 168.018 53.0123 167.592 53.5994C167.171 54.1913 166.603 54.6245 165.888 54.8991C165.178 55.1785 164.387 55.3182 163.516 55.3182ZM163.459 49.3239C164.131 49.3239 164.699 49.17 165.163 48.8622C165.627 48.5545 165.98 48.1117 166.222 47.5341C166.463 46.9564 166.584 46.2652 166.584 45.4602C166.584 44.6742 166.465 43.9806 166.229 43.3793C165.992 42.7779 165.642 42.3068 165.178 41.9659C164.714 41.625 164.141 41.4545 163.459 41.4545C162.749 41.4545 162.157 41.6345 161.683 41.9943C161.214 42.3542 160.862 42.8371 160.625 43.4432C160.393 44.0492 160.277 44.7216 160.277 45.4602C160.277 46.2178 160.395 46.8878 160.632 47.4702C160.874 48.0478 161.229 48.5024 161.697 48.8338C162.171 49.1605 162.758 49.3239 163.459 49.3239ZM172.976 36.4545V51H171.3V36.4545H172.976ZM180.62 51.2273C179.569 51.2273 178.662 50.9953 177.9 50.5312C177.142 50.0625 176.557 49.4091 176.145 48.571C175.738 47.7282 175.534 46.7481 175.534 45.6307C175.534 44.5133 175.738 43.5284 176.145 42.6761C176.557 41.8191 177.13 41.1515 177.864 40.6733C178.603 40.1903 179.464 39.9489 180.449 39.9489C181.017 39.9489 181.578 40.0436 182.132 40.233C182.686 40.4223 183.191 40.7301 183.645 41.1562C184.1 41.5777 184.462 42.1364 184.732 42.8324C185.002 43.5284 185.137 44.3854 185.137 45.4034V46.1136H176.728V44.6648H183.432C183.432 44.0492 183.309 43.5 183.063 43.017C182.821 42.5341 182.476 42.1529 182.026 41.8736C181.581 41.5942 181.055 41.4545 180.449 41.4545C179.782 41.4545 179.204 41.6203 178.716 41.9517C178.233 42.2784 177.862 42.7045 177.601 43.2301C177.341 43.7557 177.211 44.3191 177.211 44.9205V45.8864C177.211 46.7102 177.353 47.4086 177.637 47.9815C177.926 48.5497 178.326 48.983 178.837 49.2812C179.348 49.5748 179.943 49.7216 180.62 49.7216C181.06 49.7216 181.458 49.66 181.813 49.5369C182.173 49.4091 182.483 49.2197 182.743 48.9688C183.004 48.7131 183.205 48.3958 183.347 48.017L184.966 48.4716C184.796 49.0208 184.509 49.5038 184.107 49.9205C183.704 50.3324 183.207 50.6544 182.615 50.8864C182.024 51.1136 181.358 51.2273 180.62 51.2273Z" fill="#24292F"/>
</g>
<defs>
<filter id="filter0_d_107_884" x="0.5" y="0" width="264" height="92" filterUnits="userSpaceOnUse" color-interpolation-filters="sRGB">
<feFlood flood-opacity="0" result="BackgroundImageFix"/>
<feColorMatrix in="SourceAlpha" type="matrix" values="0 0 0 0 0 0 0 0 0 0 0 0 0 0 0 0 0 0 127 0" result="hardAlpha"/>
<feOffset dx="2" dy="2"/>
<feGaussianBlur stdDeviation="6"/>
<feComposite in2="hardAlpha" operator="out"/>
<feColorMatrix type="matrix" values="0 0 0 0 0 0 0 0 0 0 0 0 0 0 0 0 0 0 0.2 0"/>
<feBlend mode="normal" in2="BackgroundImageFix" result="effect1_dropShadow_107_884"/>
<feBlend mode="normal" in="SourceGraphic" in2="effect1_dropShadow_107_884" result="shape"/>
</filter>
</defs>
</svg>
