<svg width="27" height="24" viewBox="0 0 27 24" fill="none" xmlns="http://www.w3.org/2000/svg">
<path d="M26.5056 10.71C27.1648 11.3747 27.1648 12.4542 26.5056 13.1189L19.7553 19.9256C19.0961 20.5904 18.0255 20.5904 17.3663 19.9256C16.7071 19.2609 16.7071 18.1814 17.3663 17.5167L21.2372 13.6135H10.1255C9.19205 13.6135 8.43791 12.853 8.43791 11.9118C8.43791 10.9705 9.19205 10.2101 10.1255 10.2101H21.2372L17.3663 6.30687C16.7071 5.64215 16.7071 4.56265 17.3663 3.89793C18.0255 3.23321 19.0961 3.23321 19.7553 3.89793L26.5056 10.7047V10.71ZM8.43791 20.4202C9.37136 20.4202 10.1255 21.1806 10.1255 22.1219C10.1255 23.0631 9.37136 23.8235 8.43791 23.8235H5.06275C2.26769 23.8235 0 21.5369 0 18.7185V5.10506C0 2.28665 2.26769 1.71661e-05 5.06275 1.71661e-05H8.43791C9.37136 1.71661e-05 10.1255 0.760454 10.1255 1.7017C10.1255 2.64294 9.37136 3.40338 8.43791 3.40338H5.06275C4.1293 3.40338 3.37516 4.16382 3.37516 5.10506V18.7185C3.37516 19.6597 4.1293 20.4202 5.06275 20.4202H8.43791Z" fill="#484E55"/>
</svg>
