<svg width="84" height="88" viewBox="0 0 84 88" fill="none" xmlns="http://www.w3.org/2000/svg">
<rect x="0.5" width="83" height="88" rx="10" fill="#252B30"/>
<path d="M49.8571 19.5H34.1429C32.4143 19.5 31 20.95 31 22.7222V48.5L42 43.6667L53 48.5V22.7222C53 20.95 51.5857 19.5 49.8571 19.5ZM49.8571 43.6667L42 40.1544L34.1429 43.6667V22.7222H49.8571V43.6667Z" fill="white"/>
<path d="M35.8789 62.1875H26.457V62.7969H30.8047V64.1211H27.5V64.7422H33.957V67.4141H34.6953V64.1211H31.5312V62.7969H35.8789V62.1875ZM27.7227 61.1328H34.6367V57.3125H33.8984V58.5898H28.4609V57.3125H27.7227V61.1328ZM28.4609 60.5234V59.1758H33.8984V60.5234H28.4609ZM41.9844 58.1328H37.2852V64.7422H41.9844V58.1328ZM38 64.1328V58.7422H41.2578V64.1328H38ZM44.0469 67.4141H44.7852V61.918H46.5664V61.2852H44.7852V57.0781H44.0469V67.4141ZM55.3789 58.1797H48.3477V58.8125H54.6641V59.4805C54.6641 60.0078 54.6582 60.5234 54.6406 61.0625L48.0781 61.3555L48.1953 61.9766L54.6113 61.625C54.5586 62.4629 54.4531 63.3594 54.2188 64.3906L54.957 64.4609C55.3789 62.4043 55.3789 61.0098 55.3789 59.4805V58.1797ZM47.1992 65.8906H56.6211V65.2578H47.1992V65.8906Z" fill="#9DA3AA"/>
</svg>
