<svg width="83" height="88" viewBox="0 0 83 88" fill="none" xmlns="http://www.w3.org/2000/svg">
<rect width="83" height="88" rx="10" fill="#2FB0CF"/>
<path d="M53.3431 35.568C53.4068 35.056 53.4546 34.544 53.4546 34C53.4546 33.456 53.4068 32.944 53.3431 32.432L56.7053 29.792C57.0081 29.552 57.0878 29.12 56.8966 28.768L53.7096 23.232C53.5662 22.976 53.2953 22.832 53.0085 22.832C52.9129 22.832 52.8172 22.848 52.7376 22.88L48.7698 24.48C47.9412 23.84 47.0488 23.312 46.0768 22.912L45.4713 18.672C45.4235 18.288 45.0889 18 44.6905 18H38.3166C37.9182 18 37.5836 18.288 37.5357 18.672L36.9302 22.912C35.9582 23.312 35.0658 23.856 34.2372 24.48L30.2695 22.88C30.1739 22.848 30.0782 22.832 29.9826 22.832C29.7117 22.832 29.4409 22.976 29.2974 23.232L26.1105 28.768C25.9033 29.12 25.9989 29.552 26.3017 29.792L29.6639 32.432C29.6002 32.944 29.5524 33.472 29.5524 34C29.5524 34.528 29.6002 35.056 29.6639 35.568L26.3017 38.208C25.9989 38.448 25.9193 38.88 26.1105 39.232L29.2974 44.768C29.4409 45.024 29.7117 45.168 29.9986 45.168C30.0942 45.168 30.1898 45.152 30.2695 45.12L34.2372 43.52C35.0658 44.16 35.9582 44.688 36.9302 45.088L37.5357 49.328C37.5836 49.712 37.9182 50 38.3166 50H44.6905C45.0889 50 45.4235 49.712 45.4713 49.328L46.0768 45.088C47.0488 44.688 47.9412 44.144 48.7698 43.52L52.7376 45.12C52.8332 45.152 52.9288 45.168 53.0244 45.168C53.2953 45.168 53.5662 45.024 53.7096 44.768L56.8966 39.232C57.0878 38.88 57.0081 38.448 56.7053 38.208L53.3431 35.568ZM50.188 32.832C50.2517 33.328 50.2677 33.664 50.2677 34C50.2677 34.336 50.2358 34.688 50.188 35.168L49.9649 36.976L51.3831 38.096L53.1041 39.44L51.9886 41.376L49.9649 40.56L48.3077 39.888L46.8736 40.976C46.1884 41.488 45.535 41.872 44.8817 42.144L43.1926 42.832L42.9377 44.64L42.619 46.8H40.3881L39.8304 42.832L38.1413 42.144C37.4561 41.856 36.8187 41.488 36.1813 41.008L34.7312 39.888L33.0421 40.576L31.0184 41.392L29.903 39.456L31.6239 38.112L33.0421 36.992L32.819 35.184C32.7712 34.688 32.7394 34.32 32.7394 34C32.7394 33.68 32.7712 33.312 32.819 32.832L33.0421 31.024L31.6239 29.904L29.903 28.56L31.0184 26.624L33.0421 27.44L34.6993 28.112L36.1335 27.024C36.8187 26.512 37.472 26.128 38.1253 25.856L39.8144 25.168L40.0694 23.36L40.3881 21.2H42.603L43.1607 25.168L44.8498 25.856C45.535 26.144 46.1724 26.512 46.8098 26.992L48.2599 28.112L49.949 27.424L51.9727 26.608L53.0881 28.544L51.3831 29.904L49.9649 31.024L50.188 32.832ZM41.5035 27.6C37.9819 27.6 35.1296 30.464 35.1296 34C35.1296 37.536 37.9819 40.4 41.5035 40.4C45.0251 40.4 47.8774 37.536 47.8774 34C47.8774 30.464 45.0251 27.6 41.5035 27.6ZM41.5035 37.2C39.7507 37.2 38.3166 35.76 38.3166 34C38.3166 32.24 39.7507 30.8 41.5035 30.8C43.2563 30.8 44.6905 32.24 44.6905 34C44.6905 35.76 43.2563 37.2 41.5035 37.2Z" fill="#ECECEC"/>
<path d="M29.7695 58.5781H29.0547V68.9141H29.7695V58.5781ZM21.0039 66.1133L21.4492 66.6523C23.4121 65.4746 24.5781 63.8809 25.082 62.1172H26.9805V64.0977H24.918V64.7188H26.9805V68.3633H27.6953V58.8711H26.9805V61.4961H25.2344C25.3398 60.9805 25.3867 60.4473 25.3867 59.9141H21.4141V60.5469H24.666C24.4961 62.7441 23.2949 64.7422 21.0039 66.1133ZM39.8477 58.5781H39.1094V61.332H36.8711V61.9531H39.1094V64.7422H39.8477V58.5781ZM31.3984 64.0156L31.7852 64.6133C33.0156 64.1328 34.0352 63.1309 34.4746 61.8711C34.9141 62.9785 35.8691 63.875 37.0352 64.3086L37.4219 63.7109C35.957 63.2012 34.8203 61.9121 34.8203 60.5234V59.9961H37.2109V59.375H31.6562V59.9961H34.082V60.5352C34.082 62.0703 32.8809 63.4648 31.3984 64.0156ZM33.0273 66.9922C33.0156 68.1992 34.3164 68.8906 36.4492 68.9023C38.582 68.8906 39.8828 68.1992 39.8828 66.9922C39.8828 65.791 38.582 65.0879 36.4492 65.0938C34.3164 65.0879 33.0156 65.791 33.0273 66.9922ZM33.7539 66.9922C33.7422 66.1836 34.7969 65.6855 36.4492 65.6797C38.1016 65.6855 39.1562 66.1836 39.1562 66.9922C39.1562 67.7949 38.1016 68.2988 36.4492 68.293C34.7969 68.2988 33.7422 67.7949 33.7539 66.9922ZM50.2188 58.5781H49.4805V60.5938H47.0664V61.2148H49.4805V63.9453H50.2188V58.5781ZM41.7109 63.3594L42.1211 63.957C43.3398 63.4941 44.3301 62.5508 44.7637 61.3145C45.2148 62.4102 46.1934 63.2656 47.3359 63.6875L47.7461 63.1016C46.2812 62.6094 45.0918 61.3496 45.0977 59.9492V58.8945H44.3945V59.9492C44.3828 61.5254 43.2168 62.832 41.7109 63.3594ZM43.5742 65.1172H49.4922V66.2773H43.6094V68.7617H50.6406V68.1523H44.3242V66.8633H50.2188V64.5078H43.5742V65.1172ZM60.5898 58.5781H59.8516V61.332H57.6133V61.9531H59.8516V64.7422H60.5898V58.5781ZM52.1406 64.0156L52.5273 64.6133C53.7578 64.1328 54.7773 63.1309 55.2168 61.8711C55.6562 62.9785 56.6113 63.875 57.7773 64.3086L58.1641 63.7109C56.6992 63.2012 55.5625 61.9121 55.5625 60.5234V59.9961H57.9531V59.375H52.3984V59.9961H54.8242V60.5352C54.8242 62.0703 53.623 63.4648 52.1406 64.0156ZM53.7695 66.9922C53.7578 68.1992 55.0586 68.8906 57.1914 68.9023C59.3242 68.8906 60.625 68.1992 60.625 66.9922C60.625 65.791 59.3242 65.0879 57.1914 65.0938C55.0586 65.0879 53.7578 65.791 53.7695 66.9922ZM54.4961 66.9922C54.4844 66.1836 55.5391 65.6855 57.1914 65.6797C58.8438 65.6855 59.8984 66.1836 59.8984 66.9922C59.8984 67.7949 58.8438 68.2988 57.1914 68.293C55.5391 68.2988 54.4844 67.7949 54.4961 66.9922Z" fill="#484E55"/>
</svg>
