<svg width="83" height="88" viewBox="0 0 83 88" fill="none" xmlns="http://www.w3.org/2000/svg">
<rect width="83" height="88" rx="10" fill="#252B30"/>
<path d="M41.4835 18C32.3755 18 25 25.168 25 34C25 42.832 32.3755 50 41.4835 50C50.608 50 58 42.832 58 34C58 25.168 50.608 18 41.4835 18ZM41.5 46.8C34.207 46.8 28.3 41.072 28.3 34C28.3 26.928 34.207 21.2 41.5 21.2C48.793 21.2 54.7 26.928 54.7 34C54.7 41.072 48.793 46.8 41.5 46.8ZM42.325 26H39.85V35.6L48.5125 40.64L49.75 38.672L42.325 34.4V26Z" fill="#ECECEC"/>
<path d="M29.4414 58.5781H28.7031V68.9141H29.4414V58.5781ZM21.1914 60.9102H27.4727V60.2891H24.6953V58.6602H23.957V60.2891H21.1914V60.9102ZM21.8125 64.1914C21.8125 65.5801 22.873 66.5352 24.3555 66.5352C25.8262 66.5352 26.8867 65.5801 26.8867 64.1914C26.8867 62.8086 25.8262 61.8477 24.3555 61.8477C22.873 61.8477 21.8125 62.8086 21.8125 64.1914ZM22.5156 64.1914C22.5156 63.207 23.2891 62.4746 24.3555 62.4688C25.4102 62.4746 26.1836 63.207 26.1836 64.1914C26.1836 65.1758 25.4102 65.9023 24.3555 65.8906C23.2891 65.9023 22.5156 65.1758 22.5156 64.1914ZM36.3906 60.1484V59.3281H35.6289V60.1484C35.623 62.0176 33.3965 63.5586 31.7734 63.875L32.125 64.5078C33.5898 64.1387 35.3594 63.0137 36.0156 61.4316C36.6719 63.0195 38.4531 64.1445 39.9062 64.5078L40.2695 63.875C38.6406 63.5645 36.3906 62 36.3906 60.1484ZM31.3281 67.4609H40.7969V66.8398H31.3281V67.4609ZM50.0547 64.0391H43.7031V62.3164H49.7148V61.6953H43.7031V60.0898H49.9258V59.4688H42.9531V64.6484H46.0352V66.9453H41.6992V67.5664H51.168V66.9453H46.7734V64.6484H50.0547V64.0391ZM60.5664 58.5781H59.8398V68.9258H60.5664V58.5781ZM52.668 60.1953H56.6992V62.5273H52.6797V66.3945H53.5352C55.2754 66.3945 56.8574 66.3125 58.8203 66.0078L58.75 65.375C56.8105 65.6855 55.2402 65.7617 53.5352 65.7617H53.4414V63.1484H57.4375V59.5625H52.668V60.1953Z" fill="#9DA3AA"/>
</svg>
