<svg width="20" height="20" viewBox="0 0 20 20" fill="none" xmlns="http://www.w3.org/2000/svg">
<path d="M9.53441 10.175C9.91941 9.48 10.6594 9.07 11.0894 8.455C11.5444 7.81 11.2894 6.605 9.99941 6.605C9.15441 6.605 8.73941 7.245 8.56441 7.775L7.26941 7.23C7.62441 6.165 8.58941 5.25 9.99441 5.25C11.1694 5.25 11.9744 5.785 12.3844 6.455C12.7344 7.03 12.9394 8.105 12.3994 8.905C11.7994 9.79 11.2244 10.06 10.9144 10.63C10.7894 10.86 10.7394 11.01 10.7394 11.75H9.29441C9.28941 11.36 9.22941 10.725 9.53441 10.175ZM10.9994 13.75C10.9994 14.3 10.5494 14.75 9.99941 14.75C9.44941 14.75 8.99941 14.3 8.99941 13.75C8.99941 13.2 9.44941 12.75 9.99941 12.75C10.5494 12.75 10.9994 13.2 10.9994 13.75Z" fill="#7F878F"/>
<rect x="0.5" y="0.5" width="19" height="19" rx="9.5" stroke="#7F878F"/>
</svg>
