<svg width="24" height="25" viewBox="0 0 24 25" fill="none" xmlns="http://www.w3.org/2000/svg">
<path d="M15.755 14.755H14.965L14.685 14.485C15.665 13.345 16.255 11.865 16.255 10.255C16.255 6.665 13.345 3.755 9.755 3.755C6.165 3.755 3.255 6.665 3.255 10.255C3.255 13.845 6.165 16.755 9.755 16.755C11.365 16.755 12.845 16.165 13.985 15.185L14.255 15.465V16.255L19.255 21.245L20.745 19.755L15.755 14.755ZM9.755 14.755C7.26501 14.755 5.255 12.745 5.255 10.255C5.255 7.76501 7.26501 5.755 9.755 5.755C12.245 5.755 14.255 7.76501 14.255 10.255C14.255 12.745 12.245 14.755 9.755 14.755Z" fill="#ECECEC"/>
</svg>
