<svg width="18" height="18" viewBox="0 0 18 18" fill="none" xmlns="http://www.w3.org/2000/svg">
<path d="M12.7646 11.255H11.9746L11.6946 10.985C12.6746 9.845 13.2646 8.365 13.2646 6.755C13.2646 3.165 10.3546 0.255005 6.76465 0.255005C3.17465 0.255005 0.264648 3.165 0.264648 6.755C0.264648 10.345 3.17465 13.255 6.76465 13.255C8.37465 13.255 9.85465 12.665 10.9946 11.685L11.2646 11.965V12.755L16.2646 17.745L17.7546 16.255L12.7646 11.255ZM6.76465 11.255C4.27465 11.255 2.26465 9.245 2.26465 6.755C2.26465 4.265 4.27465 2.255 6.76465 2.255C9.25465 2.255 11.2646 4.265 11.2646 6.755C11.2646 9.245 9.25465 11.255 6.76465 11.255Z" fill="#A8ACB0"/>
</svg>
