<svg width="36" height="36" viewBox="0 0 36 36" fill="none" xmlns="http://www.w3.org/2000/svg">
<rect width="36" height="36" rx="10" fill="#7F878F"/>
<path d="M23.5421 13.0193C24.8733 12.3046 25.59 10.7451 25.1812 9.21976C24.7046 7.44085 22.8777 6.38608 21.0988 6.86274C19.352 7.33077 18.3034 9.09997 18.7148 10.8446L12.1111 15.7889C11.3733 15.3697 10.4815 15.2291 9.60012 15.4653C7.82121 15.9419 6.76644 17.7688 7.2431 19.5477C7.71976 21.3267 9.54667 22.3814 11.3256 21.9048C11.8166 21.7732 12.2543 21.5394 12.616 21.2312L19.8499 24.7884C19.8353 25.1202 19.8714 25.4642 19.962 25.8023C20.4386 27.5812 22.2655 28.636 24.0444 28.1593C25.8233 27.6827 26.8781 25.8558 26.4015 24.0769C26.1027 22.962 25.2761 22.131 24.2607 21.7862L23.5421 13.0193ZM13.7947 18.8362C13.8088 18.5347 13.7824 18.2269 13.7096 17.9229L20.3143 12.9826C20.4969 13.0847 20.6844 13.1725 20.8836 13.2399L21.6011 22.0028C21.3937 22.1144 21.1998 22.244 21.0245 22.3945L13.7947 18.8362Z" fill="#F7F8F8"/>
</svg>
