<svg width="36" height="36" viewBox="0 0 36 36" fill="none" xmlns="http://www.w3.org/2000/svg">
<rect width="36" height="36" rx="10" fill="#F8688B"/>
<path d="M7 16.9878C7 14.2344 9.23438 12 11.9878 12C13.3113 12 14.5797 12.5259 15.5147 13.4609L18 15.9428L20.4819 13.4609C21.4203 12.5259 22.6888 12 24.0122 12C26.7656 12 29 14.2344 29 16.9878V18.0087C29 20.7656 26.7656 23 24.0122 23C22.6888 23 21.4203 22.4741 20.4853 21.5391L18 19.0572L15.5181 21.5391C14.5797 22.4741 13.3113 23 11.9878 23C9.23438 23 7 20.7656 7 18.0122V16.9878ZM16.4428 17.5L13.9609 15.0181C13.4384 14.4956 12.7269 14.2 11.9878 14.2C10.4478 14.2 9.2 15.4478 9.2 16.9878V18.0087C9.2 19.5487 10.4478 20.7966 11.9878 20.7966C12.7269 20.7966 13.4384 20.5044 13.9609 19.9784L16.4428 17.5ZM19.5538 17.5L22.0356 19.9819C22.5581 20.5044 23.2697 20.8 24.0087 20.8C25.5487 20.8 26.7966 19.5522 26.7966 18.0122V16.9878C26.7966 15.4478 25.5487 14.2 24.0087 14.2C23.2697 14.2 22.5581 14.4922 22.0356 15.0181L19.5572 17.5H19.5538Z" fill="#F7F8F8"/>
</svg>
