<svg width="36" height="36" viewBox="0 0 36 36" fill="none" xmlns="http://www.w3.org/2000/svg">
<rect width="36" height="36" rx="10" fill="#2ABD6E"/>
<path d="M21.1818 23.2727C21.5636 22.004 22.3551 20.9222 23.1386 19.8443C23.3455 19.5619 23.5523 19.2795 23.7511 18.9932C24.5386 17.8597 25 16.4875 25 15.004C25 11.1341 21.8659 8 18 8C14.1341 8 11 11.1341 11 15C11 16.4835 11.4614 17.8597 12.2489 18.9892C12.4477 19.2756 12.6545 19.558 12.8614 19.8403C13.6489 20.9182 14.4403 22.004 14.8182 23.2687H21.1818V23.2727ZM18 28.3636C19.758 28.3636 21.1818 26.9398 21.1818 25.1818V24.5455H14.8182V25.1818C14.8182 26.9398 16.242 28.3636 18 28.3636ZM14.8182 15C14.8182 15.35 14.5318 15.6364 14.1818 15.6364C13.8318 15.6364 13.5455 15.35 13.5455 15C13.5455 12.5381 15.5381 10.5455 18 10.5455C18.35 10.5455 18.6364 10.8318 18.6364 11.1818C18.6364 11.5318 18.35 11.8182 18 11.8182C16.242 11.8182 14.8182 13.242 14.8182 15Z" fill="#F7F8F8"/>
</svg>
