<svg width="176" height="50" viewBox="0 0 176 50" fill="none" xmlns="http://www.w3.org/2000/svg">
<path d="M38.7159 17.552L38.3592 17.2016C38.1669 17.3973 38.1683 17.7115 38.3623 17.9056L38.7159 17.552ZM31.6826 10.5188L31.3291 10.8723C31.5231 11.0664 31.8373 11.0678 32.0331 10.8754L31.6826 10.5188ZM31.6823 10.5185L31.3257 10.1681C31.1333 10.3638 31.1347 10.678 31.3288 10.872L31.6823 10.5185ZM24.5857 10.5184L24.9393 10.872C25.1333 10.6779 25.1347 10.3638 24.9424 10.168L24.5857 10.5184ZM24.5854 10.5187L24.235 10.8754C24.4307 11.0677 24.7449 11.0663 24.939 10.8723L24.5854 10.5187ZM17.5522 17.552L17.9057 17.9055C18.0998 17.7115 18.1012 17.3973 17.9088 17.2015L17.5522 17.552ZM17.5519 17.5522L17.2015 17.9089C17.3973 18.1012 17.7114 18.0998 17.9055 17.9058L17.5519 17.5522ZM10.5187 24.5855L10.8723 24.939C11.0663 24.745 11.0677 24.4308 10.8754 24.235L10.5187 24.5855ZM10.5184 24.5857L10.168 24.9424C10.3638 25.1347 10.6779 25.1333 10.872 24.9393L10.5184 24.5857ZM10.5818 31.619L10.9354 31.2654C10.841 31.1711 10.713 31.1184 10.5796 31.119C10.4462 31.1196 10.3186 31.1734 10.2251 31.2686L10.5818 31.619ZM10.5821 31.6193L10.9325 31.9759C11.0277 31.8825 11.0815 31.7549 11.0821 31.6215C11.0827 31.4881 11.03 31.36 10.9357 31.2657L10.5821 31.6193ZM17.5752 38.6929L17.9296 39.0456C18.1241 38.8502 18.1237 38.5343 17.9288 38.3393C17.7338 38.1444 17.4179 38.144 17.2225 38.3385L17.5752 38.6929ZM24.6247 38.6917L24.9775 38.3374C24.7821 38.1428 24.4661 38.1432 24.2711 38.3382C24.0762 38.5331 24.0758 38.8492 24.2704 39.0445L24.6247 38.6917ZM31.6596 31.6597L32.0123 31.3052C31.8169 31.1108 31.501 31.1112 31.3061 31.3061C31.1112 31.501 31.1108 31.8169 31.3052 32.0123L31.6596 31.6597ZM38.6524 24.5858L38.2989 24.2322C38.2046 24.3265 38.1518 24.4546 38.1524 24.588C38.153 24.7213 38.2069 24.8489 38.302 24.9424L38.6524 24.5858ZM38.6527 24.5854L39.0094 24.235C38.9159 24.1399 38.7883 24.086 38.6549 24.0855C38.5216 24.0849 38.3935 24.1376 38.2992 24.2319L38.6527 24.5854ZM38.7161 17.5522L38.3626 17.9058C38.5566 18.0998 38.8708 18.1012 39.0665 17.9089L38.7161 17.5522ZM31.6192 31.619L31.9759 31.2686C31.8824 31.1734 31.7548 31.1196 31.6214 31.119C31.488 31.1184 31.36 31.1711 31.2656 31.2654L31.6192 31.619ZM31.6189 31.6192L31.2654 31.2657C31.1711 31.36 31.1184 31.4881 31.1189 31.6215C31.1195 31.7548 31.1734 31.8824 31.2685 31.9759L31.6189 31.6192ZM31.6419 31.642L31.2892 31.9964C31.4846 32.1908 31.8006 32.1904 31.9955 31.9955C32.1904 31.8006 32.1908 31.4847 31.9963 31.2893L31.6419 31.642ZM24.5857 38.6525L24.9424 38.302C24.8489 38.2069 24.7213 38.1531 24.5879 38.1525C24.4546 38.1519 24.3265 38.2046 24.2322 38.2989L24.5857 38.6525ZM24.5855 38.6527L24.2319 38.2992C24.1376 38.3935 24.0849 38.5216 24.0855 38.6549C24.086 38.7883 24.1399 38.9159 24.235 39.0094L24.5855 38.6527ZM24.6099 38.6769L24.257 39.0312C24.4524 39.2258 24.7685 39.2254 24.9634 39.0305C25.1584 38.8355 25.1587 38.5194 24.9641 38.3241L24.6099 38.6769ZM17.6156 38.6528L17.966 39.0094C18.0612 38.9159 18.115 38.7883 18.1156 38.655C18.1162 38.5216 18.0634 38.3935 17.9691 38.2992L17.6156 38.6528ZM17.6153 38.6525L17.9689 38.299C17.8746 38.2047 17.7465 38.1519 17.6131 38.1525C17.4798 38.1531 17.3522 38.2069 17.2587 38.3021L17.6153 38.6525ZM17.5924 38.6757L17.238 38.3231C17.0435 38.5185 17.0439 38.8344 17.2388 39.0293C17.4337 39.2242 17.7497 39.2246 17.9451 39.0302L17.5924 38.6757ZM39.0725 17.9024C41.1753 15.7622 41.1638 12.3226 39.0379 10.1967L38.3308 10.9038C40.0683 12.6413 40.0777 15.4525 38.3592 17.2016L39.0725 17.9024ZM39.0379 10.1967C36.912 8.07084 33.4725 8.05929 31.3322 10.1621L32.0331 10.8754C33.7822 9.15692 36.5933 9.16638 38.3308 10.9038L39.0379 10.1967ZM31.3288 10.872L31.3291 10.8723L32.0362 10.1652L32.0359 10.1649L31.3288 10.872ZM32.039 10.8689C34.1418 8.72865 34.1303 5.28912 32.0044 3.16322L31.2972 3.87033C33.0347 5.60779 33.0442 8.41896 31.3257 10.1681L32.039 10.8689ZM32.0044 3.16322C29.8668 1.02571 26.4013 1.02571 24.2637 3.16322L24.9708 3.87033C26.7178 2.12334 29.5503 2.12334 31.2972 3.87033L32.0044 3.16322ZM24.2637 3.16322C22.1379 5.2891 22.1263 8.72859 24.2291 10.8688L24.9424 10.168C23.2239 8.41891 23.2334 5.60778 24.9708 3.87033L24.2637 3.16322ZM24.939 10.8723L24.9393 10.872L24.2322 10.1649L24.2319 10.1652L24.939 10.8723ZM24.9358 10.1621C22.7956 8.05931 19.3561 8.07087 17.2302 10.1968L17.9373 10.9039C19.6748 9.16641 22.4859 9.15693 24.235 10.8754L24.9358 10.1621ZM17.2302 10.1968C15.1043 12.3226 15.0928 15.7621 17.1955 17.9024L17.9088 17.2015C16.1904 15.4525 16.1999 12.6413 17.9373 10.9039L17.2302 10.1968ZM17.9055 17.9058L17.9057 17.9055L17.1986 17.1984L17.1984 17.1987L17.9055 17.9058ZM17.9023 17.1956C15.7621 15.0928 12.3226 15.1044 10.1967 17.2303L10.9038 17.9374C12.6413 16.1999 15.4524 16.1904 17.2015 17.9089L17.9023 17.1956ZM10.1967 17.2303C8.07085 19.3561 8.05927 22.7956 10.162 24.9359L10.8754 24.235C9.1569 22.4859 9.16638 19.6748 10.9038 17.9374L10.1967 17.2303ZM10.872 24.9393L10.8723 24.939L10.1651 24.2319L10.1649 24.2322L10.872 24.9393ZM10.8688 24.2291C8.72859 22.1263 5.28909 22.1379 3.1632 24.2637L3.87031 24.9708C5.60777 23.2334 8.41891 23.2239 10.168 24.9424L10.8688 24.2291ZM3.1632 24.2637C1.02569 26.4012 1.02569 29.8668 3.1632 32.0044L3.87031 31.2972C2.12332 29.5503 2.12332 26.7178 3.87031 24.9708L3.1632 24.2637ZM3.1632 32.0044C5.30071 34.1419 8.76631 34.1419 10.9038 32.0044L10.1967 31.2972C8.44972 33.0442 5.6173 33.0442 3.87031 31.2972L3.1632 32.0044ZM10.9038 32.0044C10.9154 31.9927 10.927 31.9811 10.9385 31.9694L10.2251 31.2686C10.2157 31.2782 10.2062 31.2877 10.1967 31.2972L10.9038 32.0044ZM10.9357 31.2657L10.9354 31.2654L10.2282 31.9725L10.2285 31.9728L10.9357 31.2657ZM10.9038 32.0044C10.9134 31.9948 10.9229 31.9854 10.9325 31.9759L10.2317 31.2626C10.22 31.2741 10.2083 31.2857 10.1967 31.2973L10.9038 32.0044ZM10.9038 38.3308C9.15686 36.5838 9.15686 33.7514 10.9038 32.0044L10.1967 31.2973C8.05923 33.4348 8.05923 36.9004 10.1967 39.0379L10.9038 38.3308ZM17.2225 38.3385C15.4749 40.0778 12.6483 40.0752 10.9038 38.3308L10.1967 39.0379C12.3311 41.1723 15.7896 41.1754 17.9279 39.0473L17.2225 38.3385ZM17.9373 45.3643C16.1929 43.6198 16.1904 40.7932 17.9296 39.0456L17.2208 38.3402C15.0927 40.4785 15.0959 43.937 17.2302 46.0714L17.9373 45.3643ZM24.2637 45.3643C22.5168 47.1112 19.6843 47.1112 17.9373 45.3643L17.2302 46.0714C19.3677 48.2089 22.8333 48.2089 24.9708 46.0714L24.2637 45.3643ZM24.2704 39.0445C26.0107 40.792 26.0085 43.6195 24.2637 45.3643L24.9708 46.0714C27.1056 43.9366 27.1084 40.4771 24.979 38.3389L24.2704 39.0445ZM31.2972 38.3308C29.5525 40.0755 26.725 40.0777 24.9775 38.3374L24.2719 39.046C26.41 41.1754 29.8695 41.1727 32.0043 39.0379L31.2972 38.3308ZM31.3052 32.0123C33.0442 33.76 33.0416 36.5864 31.2972 38.3308L32.0043 39.0379C34.1386 36.9036 34.1418 33.4453 32.014 31.307L31.3052 32.0123ZM38.3307 31.2973C36.5864 33.0416 33.7599 33.0443 32.0123 31.3052L31.3069 32.0141C33.4453 34.1419 36.9036 34.1386 39.0378 32.0044L38.3307 31.2973ZM38.3307 24.9709C40.0777 26.7179 40.0777 29.5503 38.3307 31.2973L39.0378 32.0044C41.1753 29.8669 41.1753 26.4013 39.0378 24.2638L38.3307 24.9709ZM38.302 24.9424C38.3116 24.9518 38.3212 24.9613 38.3307 24.9709L39.0378 24.2638C39.0262 24.2521 39.0145 24.2406 39.0029 24.2291L38.302 24.9424ZM38.2992 24.2319L38.2989 24.2322L39.006 24.9393L39.0063 24.939L38.2992 24.2319ZM38.2961 24.9359C38.3076 24.9476 38.3191 24.9592 38.3307 24.9708L39.0378 24.2637C39.0283 24.2542 39.0188 24.2446 39.0094 24.235L38.2961 24.9359ZM38.3307 24.9708C40.4683 27.1083 43.9338 27.1083 46.0714 24.9708L45.3643 24.2637C43.6173 26.0107 40.7848 26.0107 39.0378 24.2637L38.3307 24.9708ZM46.0714 24.9708C48.2089 22.8333 48.2089 19.3677 46.0714 17.2302L45.3643 17.9373C47.1112 19.6843 47.1112 22.5167 45.3643 24.2637L46.0714 24.9708ZM46.0714 17.2302C43.9455 15.1043 40.5059 15.0928 38.3657 17.1956L39.0665 17.9089C40.8156 16.1904 43.6268 16.1999 45.3643 17.9373L46.0714 17.2302ZM38.3623 17.9056L38.3626 17.9058L39.0697 17.1987L39.0694 17.1984L38.3623 17.9056ZM31.2656 31.2654L31.2654 31.2657L31.9725 31.9728L31.9728 31.9725L31.2656 31.2654ZM31.2685 31.9759C31.2755 31.9827 31.2824 31.9895 31.2892 31.9964L31.9946 31.2875C31.9862 31.2792 31.9778 31.2709 31.9693 31.2626L31.2685 31.9759ZM31.9963 31.2893C31.9895 31.2824 31.9827 31.2755 31.9759 31.2686L31.2625 31.9694C31.2708 31.9778 31.2791 31.9862 31.2875 31.9946L31.9963 31.2893ZM24.2322 38.2989L24.2319 38.2992L24.939 39.0063L24.9393 39.006L24.2322 38.2989ZM24.235 39.0094C24.2424 39.0166 24.2497 39.0239 24.257 39.0312L24.9627 38.3226C24.9538 38.3137 24.9448 38.3049 24.9359 38.2961L24.235 39.0094ZM24.9641 38.3241C24.9569 38.3168 24.9496 38.3094 24.9424 38.302L24.2291 39.0029C24.2379 39.0118 24.2467 39.0208 24.2556 39.0298L24.9641 38.3241ZM17.9691 38.2992L17.9689 38.299L17.2618 39.0061L17.262 39.0063L17.9691 38.2992ZM17.2587 38.3021C17.2518 38.3091 17.2449 38.3161 17.238 38.3231L17.9468 39.0284C17.9552 39.02 17.9636 39.0115 17.972 39.003L17.2587 38.3021ZM17.9451 39.0302C17.952 39.0232 17.959 39.0163 17.966 39.0094L17.2651 38.2961C17.2566 38.3045 17.2482 38.3129 17.2397 38.3213L17.9451 39.0302Z" fill="#3FE5EF"/>
<circle cx="28.4508" cy="14.5883" r="1.25" transform="rotate(45 28.4508 14.5883)" fill="#3FE5EF"/>
<circle cx="21.749" cy="21.2902" r="1.25" transform="rotate(45 21.749 21.2902)" fill="#3FE5EF"/>
<circle cx="15.0472" cy="27.992" r="1.25" transform="rotate(45 15.0472 27.992)" fill="#3FE5EF"/>
<circle cx="35.1527" cy="21.2902" r="1.25" transform="rotate(45 35.1527 21.2902)" fill="#3FE5EF"/>
<circle cx="28.4508" cy="27.992" r="1.25" transform="rotate(45 28.4508 27.992)" fill="#3FE5EF"/>
<circle cx="21.7491" cy="34.6938" r="1.25" transform="rotate(45 21.7491 34.6938)" fill="#3FE5EF"/>
<path d="M60.7268 20.4103V26.9376C61.9143 25.3907 63.3479 24.6173 65.0275 24.6173C66.465 24.6173 67.6955 25.1407 68.7189 26.1876C69.7424 27.2267 70.2541 28.504 70.2541 30.0196C70.2541 31.5509 69.7346 32.8478 68.6955 33.9103C67.6643 34.9728 66.4416 35.504 65.0275 35.504C63.3088 35.504 61.8752 34.7306 60.7268 33.1837V35.1173H58.4182C58.1838 35.1173 58.0158 35.0704 57.9143 34.9767C57.8127 34.8829 57.7619 34.7657 57.7619 34.6251C57.7619 34.4767 57.8127 34.3595 57.9143 34.2735C58.0158 34.1798 58.1838 34.1329 58.4182 34.1329H59.7424V21.4063H58.4182C58.1838 21.4063 58.0158 21.3595 57.9143 21.2657C57.8127 21.172 57.7619 21.0509 57.7619 20.9024C57.7619 20.7618 57.8127 20.6446 57.9143 20.5509C58.0158 20.4571 58.1838 20.4103 58.4182 20.4103H60.7268ZM69.2697 30.0665C69.2697 28.8243 68.8439 27.7735 67.9924 26.9142C67.1408 26.047 66.1447 25.6134 65.0041 25.6134C63.8635 25.6134 62.8674 26.047 62.0158 26.9142C61.1643 27.7735 60.7385 28.8243 60.7385 30.0665C60.7385 31.3087 61.1643 32.3634 62.0158 33.2306C62.8674 34.0899 63.8635 34.5196 65.0041 34.5196C66.1447 34.5196 67.1408 34.0899 67.9924 33.2306C68.8439 32.3634 69.2697 31.3087 69.2697 30.0665ZM79.3361 19.9181V22.461H77.883V19.9181H79.3361ZM79.3713 24.9688V34.1329H83.2385C83.4807 34.1329 83.6525 34.1798 83.7541 34.2735C83.8557 34.3595 83.9064 34.4767 83.9064 34.6251C83.9064 34.7657 83.8557 34.8829 83.7541 34.9767C83.6525 35.0704 83.4807 35.1173 83.2385 35.1173H74.5197C74.2854 35.1173 74.1174 35.0704 74.0158 34.9767C73.9143 34.8829 73.8635 34.7657 73.8635 34.6251C73.8635 34.4767 73.9143 34.3595 74.0158 34.2735C74.1174 34.1798 74.2854 34.1329 74.5197 34.1329H78.3869V25.9649H75.5158C75.2814 25.9649 75.1096 25.9181 75.0002 25.8243C74.8986 25.7306 74.8479 25.6134 74.8479 25.4728C74.8479 25.3243 74.8986 25.2032 75.0002 25.1095C75.1018 25.0157 75.2736 24.9688 75.5158 24.9688H79.3713ZM96.5158 25.6134C96.5158 25.3868 96.5627 25.2228 96.6564 25.1212C96.7502 25.0196 96.8674 24.9688 97.008 24.9688C97.1564 24.9688 97.2775 25.0196 97.3713 25.1212C97.465 25.2228 97.5119 25.3946 97.5119 25.6368V27.3243C97.5119 27.5587 97.465 27.7267 97.3713 27.8282C97.2775 27.9298 97.1564 27.9806 97.008 27.9806C96.8752 27.9806 96.7619 27.9376 96.6682 27.8517C96.5822 27.7657 96.5314 27.6251 96.5158 27.4298C96.4689 26.961 96.2268 26.5743 95.7893 26.2696C95.1486 25.8321 94.301 25.6134 93.2463 25.6134C92.1447 25.6134 91.2893 25.836 90.6799 26.2813C90.2189 26.6173 89.9885 26.9923 89.9885 27.4063C89.9885 27.8751 90.2619 28.2657 90.8088 28.5782C91.1838 28.797 91.8947 28.9649 92.9416 29.0821C94.3088 29.2306 95.258 29.3985 95.7893 29.586C96.5471 29.8595 97.1096 30.2384 97.4768 30.7228C97.8518 31.2071 98.0393 31.7306 98.0393 32.2931C98.0393 33.129 97.6369 33.8751 96.8322 34.5313C96.0275 35.1798 94.8479 35.504 93.2932 35.504C91.7385 35.504 90.465 35.1095 89.4729 34.3204C89.4729 34.586 89.4572 34.7579 89.426 34.836C89.3947 34.9142 89.3361 34.9806 89.2502 35.0353C89.1721 35.0899 89.0822 35.1173 88.9807 35.1173C88.84 35.1173 88.7229 35.0665 88.6291 34.9649C88.5354 34.8634 88.4885 34.6954 88.4885 34.461V32.4337C88.4885 32.1993 88.5314 32.0313 88.6174 31.9298C88.7111 31.8282 88.8322 31.7774 88.9807 31.7774C89.1213 31.7774 89.2385 31.8282 89.3322 31.9298C89.4338 32.0235 89.4846 32.1524 89.4846 32.3165C89.4846 32.6759 89.5744 32.9767 89.7541 33.2188C90.0275 33.5938 90.4611 33.9063 91.0549 34.1563C91.6564 34.3985 92.3908 34.5196 93.258 34.5196C94.5393 34.5196 95.4924 34.2813 96.1174 33.8048C96.7424 33.3282 97.0549 32.8243 97.0549 32.2931C97.0549 31.6837 96.7385 31.1954 96.1057 30.8282C95.465 30.461 94.5314 30.2149 93.3049 30.0899C92.0861 29.9649 91.2111 29.8009 90.6799 29.5978C90.1486 29.3946 89.7346 29.0899 89.4377 28.6837C89.1408 28.2774 88.9924 27.8399 88.9924 27.3712C88.9924 26.5274 89.4064 25.8595 90.2346 25.3673C91.0627 24.8673 92.051 24.6173 93.1994 24.6173C94.5588 24.6173 95.6643 24.9493 96.5158 25.6134ZM111.785 25.9649V25.6368C111.785 25.3946 111.832 25.2228 111.926 25.1212C112.02 25.0196 112.137 24.9688 112.278 24.9688C112.426 24.9688 112.547 25.0196 112.641 25.1212C112.735 25.2228 112.781 25.3946 112.781 25.6368V27.8634C112.774 28.1056 112.723 28.2774 112.629 28.379C112.543 28.4806 112.426 28.5313 112.278 28.5313C112.145 28.5313 112.031 28.4884 111.938 28.4024C111.852 28.3087 111.801 28.1563 111.785 27.9454C111.738 27.3907 111.371 26.8634 110.684 26.3634C110.004 25.8634 109.086 25.6134 107.93 25.6134C106.469 25.6134 105.36 26.0704 104.602 26.9845C103.844 27.8985 103.465 28.9454 103.465 30.1251C103.465 31.3985 103.883 32.4493 104.719 33.2774C105.555 34.1056 106.637 34.5196 107.965 34.5196C108.731 34.5196 109.508 34.379 110.297 34.0978C111.094 33.8165 111.813 33.3634 112.453 32.7384C112.617 32.5821 112.762 32.504 112.887 32.504C113.02 32.504 113.129 32.5509 113.215 32.6446C113.309 32.7306 113.356 32.8399 113.356 32.9728C113.356 33.3087 112.961 33.7345 112.172 34.2501C110.899 35.086 109.481 35.504 107.918 35.504C106.332 35.504 105.028 35.0001 104.004 33.9923C102.988 32.9767 102.481 31.6915 102.481 30.1368C102.481 28.5509 103 27.2345 104.039 26.1876C105.086 25.1407 106.403 24.6173 107.988 24.6173C109.496 24.6173 110.762 25.0665 111.785 25.9649ZM125.461 35.1173V33.6759C124.117 34.8946 122.664 35.504 121.102 35.504C120.141 35.504 119.41 35.2423 118.91 34.7188C118.262 34.0313 117.938 33.2306 117.938 32.3165V25.9649H116.613C116.379 25.9649 116.211 25.9181 116.11 25.8243C116.008 25.7306 115.957 25.6095 115.957 25.461C115.957 25.3204 116.008 25.2032 116.11 25.1095C116.211 25.0157 116.379 24.9688 116.613 24.9688H118.922V32.3165C118.922 32.9571 119.125 33.4845 119.531 33.8985C119.938 34.3126 120.446 34.5196 121.055 34.5196C122.656 34.5196 124.125 33.7853 125.461 32.3165V25.9649H123.645C123.41 25.9649 123.242 25.9181 123.141 25.8243C123.039 25.7306 122.988 25.6095 122.988 25.461C122.988 25.3204 123.039 25.2032 123.141 25.1095C123.242 25.0157 123.41 24.9688 123.645 24.9688H126.446V34.1329H127.278C127.512 34.1329 127.68 34.1798 127.781 34.2735C127.883 34.3595 127.934 34.4767 127.934 34.6251C127.934 34.7657 127.883 34.8829 127.781 34.9767C127.68 35.0704 127.512 35.1173 127.278 35.1173H125.461ZM137.367 19.9181V22.461H134.508V19.9181H137.367ZM137.696 24.4767V32.7149H140.578C141.156 32.7149 141.567 32.8282 141.809 33.0548C142.059 33.2735 142.184 33.5626 142.184 33.922C142.184 34.2735 142.059 34.5626 141.809 34.7892C141.567 35.0079 141.156 35.1173 140.578 35.1173H132.41C131.832 35.1173 131.418 35.0079 131.168 34.7892C130.926 34.5626 130.805 34.2696 130.805 33.9103C130.805 33.5587 130.926 33.2735 131.168 33.0548C131.418 32.8282 131.832 32.7149 132.41 32.7149H135.293V26.879H133.36C132.789 26.879 132.379 26.7696 132.129 26.5509C131.879 26.3243 131.754 26.0313 131.754 25.672C131.754 25.3204 131.875 25.0353 132.117 24.8165C132.367 24.5899 132.781 24.4767 133.36 24.4767H137.696ZM150.328 26.879V31.6954C150.328 32.211 150.434 32.5509 150.645 32.7149C150.973 32.9728 151.559 33.1017 152.403 33.1017C153.629 33.1017 154.762 32.8399 155.801 32.3165C156.199 32.1134 156.512 32.0118 156.738 32.0118C157.051 32.0118 157.321 32.129 157.547 32.3634C157.781 32.5978 157.899 32.8829 157.899 33.2188C157.899 33.5313 157.774 33.8009 157.524 34.0274C157.141 34.3946 156.383 34.7345 155.25 35.047C154.125 35.3517 153.176 35.504 152.403 35.504C150.91 35.504 149.789 35.1837 149.039 34.5431C148.297 33.8946 147.926 33.1017 147.926 32.1642V26.879H147.059C146.481 26.879 146.067 26.7696 145.817 26.5509C145.574 26.3243 145.453 26.0313 145.453 25.672C145.453 25.3204 145.574 25.0353 145.817 24.8165C146.067 24.5899 146.481 24.4767 147.059 24.4767H147.926V22.3087C147.926 21.7306 148.035 21.3204 148.254 21.0782C148.481 20.8282 148.774 20.7032 149.133 20.7032C149.485 20.7032 149.77 20.8282 149.988 21.0782C150.215 21.3204 150.328 21.7306 150.328 22.3087V24.4767H154.77C155.348 24.4767 155.758 24.5899 156 24.8165C156.25 25.0353 156.375 25.3243 156.375 25.6837C156.375 26.0353 156.25 26.3243 156 26.5509C155.758 26.7696 155.348 26.879 154.77 26.879H150.328Z" fill="#3FE5EF"/>
</svg>
