<svg width="29" height="28" viewBox="0 0 29 28" fill="none" xmlns="http://www.w3.org/2000/svg">
<path fill-rule="evenodd" clip-rule="evenodd" d="M25.3 14.2555C25.3 13.4578 25.2284 12.6907 25.0955 11.9543H14.5V16.3061H20.5545C20.2938 17.7123 19.5011 18.9038 18.3097 19.7015V22.5242H21.9455C24.0727 20.5657 25.3 17.6816 25.3 14.2555Z" fill="#4285F4"/>
<path fill-rule="evenodd" clip-rule="evenodd" d="M14.5 25.25C17.5375 25.25 20.0841 24.2426 21.9455 22.5244L18.3097 19.7017C17.3023 20.3767 16.0136 20.7755 14.5 20.7755C11.5699 20.7755 9.08978 18.7965 8.20512 16.1375H4.44659V19.0522C6.29773 22.7289 10.1023 25.25 14.5 25.25Z" fill="#34A853"/>
<path fill-rule="evenodd" clip-rule="evenodd" d="M8.20511 16.1375C7.98011 15.4625 7.85227 14.7415 7.85227 14C7.85227 13.2585 7.98011 12.5375 8.20511 11.8625V8.94775H4.44659C3.68466 10.4665 3.25 12.1847 3.25 14C3.25 15.8154 3.68466 17.5336 4.44659 19.0523L8.20511 16.1375Z" fill="#FBBC05"/>
<path fill-rule="evenodd" clip-rule="evenodd" d="M14.5 7.22443C16.1517 7.22443 17.6347 7.79205 18.8006 8.90682L22.0273 5.68011C20.079 3.86477 17.5324 2.75 14.5 2.75C10.1023 2.75 6.29773 5.27102 4.44659 8.94773L8.20512 11.8625C9.08978 9.20341 11.5699 7.22443 14.5 7.22443Z" fill="#EA4335"/>
</svg>
