<svg width="25" height="25" viewBox="0 0 25 25" fill="none" xmlns="http://www.w3.org/2000/svg">
<path d="M15.7646 14.462H14.9746L14.6946 14.192C15.6746 13.052 16.2646 11.572 16.2646 9.96204C16.2646 6.37204 13.3546 3.46204 9.76465 3.46204C6.17465 3.46204 3.26465 6.37204 3.26465 9.96204C3.26465 13.552 6.17465 16.462 9.76465 16.462C11.3746 16.462 12.8546 15.872 13.9946 14.892L14.2646 15.172V15.962L19.2646 20.952L20.7546 19.462L15.7646 14.462ZM9.76465 14.462C7.27465 14.462 5.26465 12.452 5.26465 9.96204C5.26465 7.47204 7.27465 5.46204 9.76465 5.46204C12.2546 5.46204 14.2646 7.47204 14.2646 9.96204C14.2646 12.452 12.2546 14.462 9.76465 14.462Z" fill="#7F878F"/>
</svg>
