<svg width="31" height="32" viewBox="0 0 31 32" fill="none" xmlns="http://www.w3.org/2000/svg">
<path d="M27.3431 17.568C27.4068 17.056 27.4546 16.544 27.4546 16C27.4546 15.456 27.4068 14.944 27.3431 14.432L30.7053 11.792C31.0081 11.552 31.0878 11.12 30.8966 10.768L27.7096 5.232C27.5662 4.976 27.2953 4.832 27.0085 4.832C26.9129 4.832 26.8172 4.848 26.7376 4.88L22.7698 6.48C21.9412 5.84 21.0488 5.312 20.0768 4.912L19.4713 0.672C19.4235 0.288 19.0889 0 18.6905 0H12.3166C11.9182 0 11.5836 0.288 11.5357 0.672L10.9302 4.912C9.9582 5.312 9.06585 5.856 8.23724 6.48L4.26947 4.88C4.17386 4.848 4.07825 4.832 3.98264 4.832C3.71175 4.832 3.44086 4.976 3.29744 5.232L0.110479 10.768C-0.0966741 11.12 -0.00106493 11.552 0.301697 11.792L3.66394 14.432C3.60021 14.944 3.5524 15.472 3.5524 16C3.5524 16.528 3.60021 17.056 3.66394 17.568L0.301697 20.208C-0.00106493 20.448 -0.0807393 20.88 0.110479 21.232L3.29744 26.768C3.44086 27.024 3.71175 27.168 3.99858 27.168C4.09419 27.168 4.18979 27.152 4.26947 27.12L8.23724 25.52C9.06585 26.16 9.9582 26.688 10.9302 27.088L11.5357 31.328C11.5836 31.712 11.9182 32 12.3166 32H18.6905C19.0889 32 19.4235 31.712 19.4713 31.328L20.0768 27.088C21.0488 26.688 21.9412 26.144 22.7698 25.52L26.7376 27.12C26.8332 27.152 26.9288 27.168 27.0244 27.168C27.2953 27.168 27.5662 27.024 27.7096 26.768L30.8966 21.232C31.0878 20.88 31.0081 20.448 30.7053 20.208L27.3431 17.568ZM24.188 14.832C24.2517 15.328 24.2677 15.664 24.2677 16C24.2677 16.336 24.2358 16.688 24.188 17.168L23.9649 18.976L25.3831 20.096L27.1041 21.44L25.9886 23.376L23.9649 22.56L22.3077 21.888L20.8736 22.976C20.1884 23.488 19.535 23.872 18.8817 24.144L17.1926 24.832L16.9377 26.64L16.619 28.8H14.3881L13.8304 24.832L12.1413 24.144C11.4561 23.856 10.8187 23.488 10.1813 23.008L8.73122 21.888L7.04213 22.576L5.0184 23.392L3.90297 21.456L5.62393 20.112L7.04213 18.992L6.81904 17.184C6.77123 16.688 6.73937 16.32 6.73937 16C6.73937 15.68 6.77123 15.312 6.81904 14.832L7.04213 13.024L5.62393 11.904L3.90297 10.56L5.0184 8.624L7.04213 9.44L8.69935 10.112L10.1335 9.024C10.8187 8.512 11.472 8.128 12.1253 7.856L13.8144 7.168L14.0694 5.36L14.3881 3.2H16.603L17.1607 7.168L18.8498 7.856C19.535 8.144 20.1724 8.512 20.8098 8.992L22.2599 10.112L23.949 9.424L25.9727 8.608L27.0881 10.544L25.3831 11.904L23.9649 13.024L24.188 14.832ZM15.5035 9.6C11.9819 9.6 9.12959 12.464 9.12959 16C9.12959 19.536 11.9819 22.4 15.5035 22.4C19.0251 22.4 21.8774 19.536 21.8774 16C21.8774 12.464 19.0251 9.6 15.5035 9.6ZM15.5035 19.2C13.7507 19.2 12.3166 17.76 12.3166 16C12.3166 14.24 13.7507 12.8 15.5035 12.8C17.2563 12.8 18.6905 14.24 18.6905 16C18.6905 17.76 17.2563 19.2 15.5035 19.2Z" fill="#ECECEC"/>
</svg>
