<svg width="20" height="21" viewBox="0 0 20 21" fill="none" xmlns="http://www.w3.org/2000/svg">
<path d="M14.6699 17.0885C10.8507 19.2935 5.94667 17.9795 3.74167 14.1603C1.53667 10.3411 2.8507 5.4371 6.66987 3.2321C6.96432 3.0621 7.26877 2.90942 7.57956 2.78772C7.00545 5.61334 7.46282 8.60553 8.93782 11.1603C10.4128 13.7151 12.7755 15.6073 15.5096 16.5229C15.2488 16.7312 14.9643 16.9185 14.6699 17.0885ZM15.6699 18.8206C17.246 17.9106 18.4769 16.6225 19.325 15.1514C15.8706 15.1482 12.5199 13.3646 10.6699 10.1603C8.81987 6.95601 8.95058 3.16241 10.675 0.169183C8.97694 0.168062 7.24604 0.590049 5.66987 1.50005C0.889412 4.26005 -0.750382 10.3798 2.00962 15.1603C4.76962 19.9408 10.8894 21.5806 15.6699 18.8206Z" fill="#A8ACB0"/>
</svg>
