<svg width="36" height="36" viewBox="0 0 36 36" fill="none" xmlns="http://www.w3.org/2000/svg">
<rect width="36" height="36" rx="10" fill="#5767F9"/>
<path d="M26 11.8571V13.5714C26 15.15 22.4179 16.4286 18 16.4286C13.5821 16.4286 10 15.15 10 13.5714V11.8571C10 10.2786 13.5821 9 18 9C22.4179 9 26 10.2786 26 11.8571ZM24.0429 16.6679C24.7857 16.4036 25.4679 16.0643 26 15.6464V19.2857C26 20.8643 22.4179 22.1429 18 22.1429C13.5821 22.1429 10 20.8643 10 19.2857V15.6464C10.5321 16.0679 11.2143 16.4036 11.9571 16.6679C13.5607 17.2393 15.6964 17.5714 18 17.5714C20.3036 17.5714 22.4393 17.2393 24.0429 16.6679ZM10 21.3607C10.5321 21.7821 11.2143 22.1179 11.9571 22.3821C13.5607 22.9536 15.6964 23.2857 18 23.2857C20.3036 23.2857 22.4393 22.9536 24.0429 22.3821C24.7857 22.1179 25.4679 21.7786 26 21.3607V24.4286C26 26.0071 22.4179 27.2857 18 27.2857C13.5821 27.2857 10 26.0071 10 24.4286V21.3607Z" fill="#F7F8F8"/>
</svg>
