<svg width="36" height="36" viewBox="0 0 36 36" fill="none" xmlns="http://www.w3.org/2000/svg">
<rect width="36" height="36" rx="10" fill="#F56767"/>
<path d="M9.11111 13.1458C8.44792 12.7639 8 12.0451 8 11.2222C8 9.99653 8.99653 9 10.2222 9C11.0451 9 11.7639 9.44792 12.1458 10.1111H23.8542C24.2361 9.44792 24.9549 9 25.7778 9C27.0035 9 28 9.99653 28 11.2222C28 12.0451 27.5521 12.7639 26.8889 13.1458V22.6319C27.5521 23.0174 28 23.7326 28 24.5556C28 25.7813 27.0035 26.7778 25.7778 26.7778C24.9549 26.7778 24.2361 26.3299 23.8542 25.6667H12.1458C11.7604 26.3299 11.0451 26.7778 10.2222 26.7778C8.99653 26.7778 8 25.7813 8 24.5556C8 23.7326 8.44792 23.0139 9.11111 22.6319V13.1458ZM23.8542 12.3333H12.1458C11.9514 12.6701 11.6701 12.9514 11.3333 13.1458V22.6319C11.6701 22.8264 11.9514 23.1076 12.1458 23.4444H23.8542C24.0486 23.1076 24.3299 22.8264 24.6667 22.6319V13.1458C24.3299 12.9514 24.0486 12.6701 23.8542 12.3333ZM12.4444 14.5556C12.4444 13.941 12.941 13.4444 13.5556 13.4444H18C18.6146 13.4444 19.1111 13.941 19.1111 14.5556V17.8889C19.1111 18.5035 18.6146 19 18 19H13.5556C12.941 19 12.4444 18.5035 12.4444 17.8889V14.5556ZM16.8889 20.1111H18C19.2257 20.1111 20.2222 19.1146 20.2222 17.8889V16.7778H22.4444C23.059 16.7778 23.5556 17.2743 23.5556 17.8889V21.2222C23.5556 21.8368 23.059 22.3333 22.4444 22.3333H18C17.3854 22.3333 16.8889 21.8368 16.8889 21.2222V20.1111Z" fill="#F7F8F8"/>
</svg>
