<svg width="36" height="36" viewBox="0 0 36 36" fill="none" xmlns="http://www.w3.org/2000/svg">
<rect width="36" height="36" rx="10" fill="#60B3EF"/>
<path d="M17.6435 12.8624C17.9147 12.6217 18.0217 12.2436 17.8803 11.9075C17.7925 11.705 17.697 11.5064 17.59 11.3154L17.4716 11.1092C17.3571 10.9182 17.231 10.731 17.0973 10.5515C16.8796 10.2612 16.4976 10.1657 16.1539 10.2803L15.0767 10.6355C14.668 10.2994 14.1982 10.0244 13.694 9.83724L13.461 8.72955C13.3885 8.37432 13.1135 8.09167 12.7544 8.04966C12.5023 8.01528 12.2464 8 11.9867 8H11.9599C11.7002 8 11.4443 8.01528 11.1922 8.04584C10.8331 8.08785 10.5581 8.37432 10.4856 8.72573L10.2526 9.83724C9.74454 10.0282 9.27855 10.2994 8.86985 10.6355L7.7889 10.2841C7.44513 10.1695 7.06317 10.265 6.84545 10.5553C6.71176 10.7348 6.58572 10.922 6.46731 11.113L6.35272 11.3154C6.24577 11.5064 6.15028 11.705 6.06243 11.9113C5.9211 12.2436 6.02805 12.6217 6.29924 12.8662L7.1472 13.6225C7.10518 13.8784 7.08227 14.1458 7.08227 14.417C7.08227 14.6882 7.10518 14.9555 7.1472 15.2153L6.29924 15.9716C6.02805 16.2122 5.9211 16.5903 6.06243 16.9265C6.15028 17.1289 6.24577 17.3275 6.35272 17.5223L6.46731 17.7209C6.5819 17.9157 6.70794 18.0991 6.84545 18.2786C7.06317 18.5689 7.44513 18.6644 7.7889 18.5498L8.86603 18.1946C9.27473 18.5307 9.74454 18.8057 10.2487 18.9929L10.4817 20.1044C10.5543 20.4596 10.8293 20.7423 11.1884 20.7843C11.4443 20.8148 11.704 20.8301 11.9676 20.8301C12.2311 20.8301 12.4909 20.8148 12.7468 20.7843C13.1058 20.7423 13.3808 20.4558 13.4534 20.1044L13.6864 18.9929C14.1944 18.8019 14.6604 18.5307 15.0691 18.1946L16.1462 18.5498C16.49 18.6644 16.872 18.5689 17.0897 18.2786C17.2234 18.0991 17.3494 17.9157 17.464 17.7209L17.5824 17.5147C17.6894 17.3237 17.7848 17.1251 17.8727 16.9226C18.014 16.5903 17.9071 16.2122 17.6359 15.9677L16.7879 15.2114C16.8299 14.9517 16.8529 14.6843 16.8529 14.4131C16.8529 14.142 16.8299 13.8746 16.7879 13.6148L17.6359 12.8586L17.6435 12.8624ZM10.138 14.417C10.138 13.9307 10.3311 13.4644 10.675 13.1205C11.0188 12.7767 11.4851 12.5835 11.9714 12.5835C12.4576 12.5835 12.924 12.7767 13.2678 13.1205C13.6116 13.4644 13.8048 13.9307 13.8048 14.417C13.8048 14.9032 13.6116 15.3696 13.2678 15.7134C12.924 16.0572 12.4576 16.2504 11.9714 16.2504C11.4851 16.2504 11.0188 16.0572 10.675 15.7134C10.3311 15.3696 10.138 14.9032 10.138 14.417ZM25.1376 26.8116C25.3783 27.0828 25.7564 27.1898 26.0925 27.0485C26.295 26.9606 26.4936 26.8651 26.6846 26.7582L26.8908 26.6398C27.0818 26.5252 27.269 26.3991 27.4485 26.2654C27.7388 26.0477 27.8343 25.6658 27.7197 25.322L27.3645 24.2449C27.7006 23.8362 27.9756 23.3663 28.1628 22.8621L29.2743 22.6292C29.6295 22.5566 29.9121 22.2816 29.9542 21.9225C29.9847 21.6666 30 21.4069 30 21.1433C30 20.8798 29.9847 20.62 29.9542 20.3641C29.9121 20.0051 29.6257 19.7301 29.2743 19.6575L28.1628 19.4207C27.9718 18.9127 27.7006 18.4467 27.3645 18.038L27.7197 16.9608C27.8343 16.6171 27.7388 16.2351 27.4485 16.0174C27.269 15.8837 27.0818 15.7577 26.8908 15.6392L26.6884 15.5247C26.4974 15.4177 26.2988 15.3222 26.0925 15.2344C25.7602 15.093 25.3821 15.2 25.1376 15.4712L24.3813 16.3191C24.1216 16.2771 23.8542 16.2542 23.583 16.2542C23.3118 16.2542 23.0445 16.2771 22.7847 16.3191L22.0284 15.4712C21.7878 15.2 21.4097 15.093 21.0735 15.2344C20.8711 15.3222 20.6725 15.4177 20.4777 15.5247L20.2791 15.6392C20.0843 15.7538 19.9009 15.8799 19.7214 16.0174C19.4311 16.2351 19.3356 16.6171 19.4502 16.9608L19.8054 18.038C19.4693 18.4467 19.1943 18.9165 19.0071 19.4207L17.8956 19.6498C17.5404 19.7224 17.2577 19.9974 17.2157 20.3565C17.1852 20.6124 17.1699 20.8721 17.1699 21.1357C17.1699 21.3992 17.1852 21.659 17.2157 21.9149C17.2577 22.2739 17.5442 22.5489 17.8956 22.6215L19.0071 22.8545C19.1981 23.3625 19.4693 23.8285 19.8054 24.2372L19.4502 25.3143C19.3356 25.6581 19.4311 26.0401 19.7214 26.2578C19.9009 26.3915 20.0843 26.5175 20.2791 26.6321L20.4853 26.7505C20.6763 26.8575 20.8749 26.953 21.0774 27.0408C21.4097 27.1821 21.7878 27.0752 22.0323 26.804L22.7886 25.956C23.0483 25.9981 23.3157 26.021 23.5869 26.021C23.858 26.021 24.1254 25.9981 24.3852 25.956L25.1414 26.804L25.1376 26.8116ZM23.583 19.3061C23.8238 19.3061 24.0622 19.3535 24.2847 19.4456C24.5071 19.5378 24.7092 19.6728 24.8795 19.8431C25.0497 20.0133 25.1848 20.2154 25.2769 20.4379C25.369 20.6603 25.4165 20.8987 25.4165 21.1395C25.4165 21.3803 25.369 21.6187 25.2769 21.8411C25.1848 22.0636 25.0497 22.2657 24.8795 22.4359C24.7092 22.6062 24.5071 22.7412 24.2847 22.8334C24.0622 22.9255 23.8238 22.9729 23.583 22.9729C23.3423 22.9729 23.1039 22.9255 22.8814 22.8334C22.659 22.7412 22.4569 22.6062 22.2866 22.4359C22.1164 22.2657 21.9813 22.0636 21.8892 21.8411C21.797 21.6187 21.7496 21.3803 21.7496 21.1395C21.7496 20.8987 21.797 20.6603 21.8892 20.4379C21.9813 20.2154 22.1164 20.0133 22.2866 19.8431C22.4569 19.6728 22.659 19.5378 22.8814 19.4456C23.1039 19.3535 23.3423 19.3061 23.583 19.3061Z" fill="#F7F8F8"/>
</svg>
