<svg width="36" height="36" viewBox="0 0 36 36" fill="none" xmlns="http://www.w3.org/2000/svg">
<rect width="36" height="36" rx="10" fill="#F58445"/>
<path d="M27 18C27 18.0316 27 18.0633 27 18.0949C26.9859 19.3781 25.8187 20.25 24.5355 20.25H21.0938C20.1621 20.25 19.4062 21.0059 19.4062 21.9375C19.4062 22.057 19.4203 22.173 19.4414 22.2855C19.5152 22.6441 19.6699 22.9887 19.8211 23.3367C20.0355 23.8219 20.2465 24.3035 20.2465 24.8133C20.2465 25.9312 19.4871 26.9473 18.3691 26.993C18.2461 26.9965 18.123 27 17.9965 27C13.0289 27 9 22.9711 9 18C9 13.0289 13.0289 9 18 9C22.9711 9 27 13.0289 27 18ZM13.5 19.125C13.5 18.8266 13.3815 18.5405 13.1705 18.3295C12.9595 18.1185 12.6734 18 12.375 18C12.0766 18 11.7905 18.1185 11.5795 18.3295C11.3685 18.5405 11.25 18.8266 11.25 19.125C11.25 19.4234 11.3685 19.7095 11.5795 19.9205C11.7905 20.1315 12.0766 20.25 12.375 20.25C12.6734 20.25 12.9595 20.1315 13.1705 19.9205C13.3815 19.7095 13.5 19.4234 13.5 19.125ZM13.5 15.75C13.7984 15.75 14.0845 15.6315 14.2955 15.4205C14.5065 15.2095 14.625 14.9234 14.625 14.625C14.625 14.3266 14.5065 14.0405 14.2955 13.8295C14.0845 13.6185 13.7984 13.5 13.5 13.5C13.2016 13.5 12.9155 13.6185 12.7045 13.8295C12.4935 14.0405 12.375 14.3266 12.375 14.625C12.375 14.9234 12.4935 15.2095 12.7045 15.4205C12.9155 15.6315 13.2016 15.75 13.5 15.75ZM19.125 12.375C19.125 12.0766 19.0065 11.7905 18.7955 11.5795C18.5845 11.3685 18.2984 11.25 18 11.25C17.7016 11.25 17.4155 11.3685 17.2045 11.5795C16.9935 11.7905 16.875 12.0766 16.875 12.375C16.875 12.6734 16.9935 12.9595 17.2045 13.1705C17.4155 13.3815 17.7016 13.5 18 13.5C18.2984 13.5 18.5845 13.3815 18.7955 13.1705C19.0065 12.9595 19.125 12.6734 19.125 12.375ZM22.5 15.75C22.7984 15.75 23.0845 15.6315 23.2955 15.4205C23.5065 15.2095 23.625 14.9234 23.625 14.625C23.625 14.3266 23.5065 14.0405 23.2955 13.8295C23.0845 13.6185 22.7984 13.5 22.5 13.5C22.2016 13.5 21.9155 13.6185 21.7045 13.8295C21.4935 14.0405 21.375 14.3266 21.375 14.625C21.375 14.9234 21.4935 15.2095 21.7045 15.4205C21.9155 15.6315 22.2016 15.75 22.5 15.75Z" fill="#F7F8F8"/>
</svg>
