<svg width="36" height="36" viewBox="0 0 36 36" fill="none" xmlns="http://www.w3.org/2000/svg">
<rect width="36" height="36" rx="10" fill="#9C55D3"/>
<path d="M11 10.5455C11 9.14148 12.1415 8 13.5455 8H22.4545C23.8585 8 25 9.14148 25 10.5455V25.8182C25 27.2222 23.8585 28.3636 22.4545 28.3636H13.5455C12.1415 28.3636 11 27.2222 11 25.8182V10.5455ZM19.2727 25.8182C19.2727 25.4806 19.1386 25.1569 18.9 24.9182C18.6613 24.6795 18.3375 24.5455 18 24.5455C17.6625 24.5455 17.3387 24.6795 17.1 24.9182C16.8614 25.1569 16.7273 25.4806 16.7273 25.8182C16.7273 26.1557 16.8614 26.4795 17.1 26.7181C17.3387 26.9568 17.6625 27.0909 18 27.0909C18.3375 27.0909 18.6613 26.9568 18.9 26.7181C19.1386 26.4795 19.2727 26.1557 19.2727 25.8182ZM22.4545 10.5455H13.5455V23.2727H22.4545V10.5455Z" fill="#F7F8F8"/>
</svg>
